<svg id="visual" viewBox="0 0 900 300" width="900" height="300" xmlns="http://www.w3.org/2000/svg" xmlns:xlink="http://www.w3.org/1999/xlink" version="1.1"><path d="M0 166L21.5 165.7C43 165.3 86 164.7 128.8 161.8C171.7 159 214.3 154 257.2 139.5C300 125 343 101 385.8 103.3C428.7 105.7 471.3 134.3 514.2 145.3C557 156.3 600 149.7 642.8 135.8C685.7 122 728.3 101 771.2 92C814 83 857 86 878.5 87.5L900 89L900 0L878.5 0C857 0 814 0 771.2 0C728.3 0 685.7 0 642.8 0C600 0 557 0 514.2 0C471.3 0 428.7 0 385.8 0C343 0 300 0 257.2 0C214.3 0 171.7 0 128.8 0C86 0 43 0 21.5 0L0 0Z" fill="#191e24" stroke-linecap="round" stroke-linejoin="miter"></path></svg>